<svg xmlns="http://www.w3.org/2000/svg" viewBox="0 0 200 200" width="48" height="48">
  <g transform="translate(100,100)">
    <circle r="90" fill="none" stroke="#1a2744" stroke-width="1.5" opacity="0.2" />
    <circle r="80" fill="none" stroke="#1a2744" stroke-width="0.5" opacity="0.15" />
    <polygon points="0,-85 6,-30 -6,-30" fill="#1a2744" opacity="0.7" />
    <polygon points="0,85 6,30 -6,30" fill="#1a2744" opacity="0.25" />
    <polygon points="-85,0 -30,6 -30,-6" fill="#1a2744" opacity="0.25" />
    <polygon points="85,0 30,6 30,-6" fill="#1a2744" opacity="0.25" />
    <polygon points="-60,-60 -15,-22 -22,-15" fill="#1a2744" opacity="0.15" />
    <polygon points="60,-60 15,-22 22,-15" fill="#1a2744" opacity="0.15" />
    <polygon points="-60,60 -15,22 -22,15" fill="#1a2744" opacity="0.15" />
    <polygon points="60,60 15,22 22,15" fill="#1a2744" opacity="0.15" />
    <circle r="4" fill="#1a2744" opacity="0.4" />
    <circle r="2" fill="#1a2744" opacity="0.7" />
    <text y="-68" text-anchor="middle" font-size="14" font-weight="700" fill="#1a2744" opacity="0.5" font-family="serif">N</text>
    <text y="78" text-anchor="middle" font-size="14" font-weight="700" fill="#1a2744" opacity="0.3" font-family="serif">S</text>
    <text x="-70" y="5" text-anchor="middle" font-size="14" font-weight="700" fill="#1a2744" opacity="0.3" font-family="serif">W</text>
    <text x="70" y="5" text-anchor="middle" font-size="14" font-weight="700" fill="#1a2744" opacity="0.3" font-family="serif">E</text>
  </g>
</svg>
